<svg width="64" height="64" viewBox="0 0 64 64" fill="none" xmlns="http://www.w3.org/2000/svg">
<path d="M61.3135 35.2396C61.375 42.3469 58.773 49.2195 54.0199 54.504C49.2669 59.7884 42.7073 63.1015 35.6333 63.7907C35.6333 63.7907 17.1973 64.2617 11.0968 63.7907C9.97972 63.6566 8.91805 63.229 8.01983 62.5514C7.12162 61.8738 6.41892 60.9704 5.98322 59.933C6.8414 60.3111 7.76069 60.5314 8.69703 60.5834C10.6931 60.7629 14.1022 60.8526 18.857 60.8526C25.8322 60.8526 33.4353 60.6507 33.5026 60.6507H33.6372C41.2372 60.0053 48.3045 56.4837 53.3964 50.8047C57.7637 45.9917 60.53 39.942 61.3135 33.4902V35.2396Z" fill="white"/>
<path d="M59.0705 28.9821C59.1254 36.0926 56.5145 42.9656 51.7527 48.2463C46.9909 53.5271 40.4236 56.8324 33.3454 57.5108C33.3454 57.5108 14.9094 57.9818 8.80896 57.5108C7.16139 57.2552 5.6632 56.4086 4.59421 55.1291C3.52523 53.8496 2.95856 52.2248 3.00006 50.558V7.11465C2.97949 5.43928 3.57252 3.81426 4.66733 2.54593C5.76215 1.27759 7.28312 0.453573 8.94353 0.229205C15.0664 -0.286643 33.4799 0.229205 33.4799 0.229205C40.5729 0.942284 47.1394 4.29323 51.8789 9.61833C56.6183 14.9434 59.185 21.8543 59.0705 28.9821Z" fill="white"/>
</svg>
